:FULLY-SPECIFIED
:FORCE-ALL-JOINTS-BE-3DOF
:DEGREES
1223
root -0.420814 14.9132 -14.019 364.534 5.56234 355.598
lfemur -52.3339 6.34616 -20.7388
ltibia 79.9106 0 0
lfoot -18.5719 10.5544 0
ltoes -33.9059 0 0
rfemur -29.5134 -4.68552 24.8837
rtibia 58.9938 0 0
rfoot -23.0848 -18.6351 0
rtoes -8.78636 0 0
lowerback 15.2709 1.707 -0.625553
upperback -2.6558 2.67103 3.67453
thorax -11.6619 1.39588 3.67304
lowerneck -4.18898 -4.74551 -8.95925
upperneck 3.71527 -6.09251 5.9545
head 2.37139 -3.03079 3.25123
lclavicle 6.62608e-16 -7.8126e-15 0
lhumerus 28.7903 -32.0612 96.2228
lradius 97.8285 0 0
lwrist 52.9895 0 0
lhand -37.7435 56.5976 0
lfingers 7.12502 0 0
lthumb -10.7899 -43.4382 0
rclavicle 6.62608e-16 -7.8126e-15 0
rhumerus 0.70696 39.3507 -74.5662
rradius 115.264 0 0
rwrist -33.6796 0 0
rhand -9.6566 -21.5108 0
rfingers 7.12502 0 0
rthumb 16.2969 -50.6385 0
1224
root -0.434684 14.9122 -13.8971 364.627 5.27622 355.512
lfemur -52.7837 6.43347 -20.714
ltibia 80.012 0 0
lfoot -18.3315 10.4084 0
ltoes -33.9695 0 0
rfemur -29.18 -4.68812 25.1103
rtibia 59.2129 0 0
rfoot -23.6823 -18.9774 0
rtoes -9.07464 0 0
lowerback 15.279 1.7332 -0.529529
upperback -2.67922 2.72379 3.68245
thorax -11.6955 1.41715 3.61521
lowerneck -4.22606 -4.69579 -8.92283
upperneck 3.67462 -6.02223 5.93182
head 2.36243 -2.99505 3.2435
lclavicle -1.90022e-16 -7.91256e-15 0
lhumerus 29.3149 -31.6587 96.0045
lradius 97.5997 0 0
lwrist 53.1147 0 0
lhand -37.8428 56.7676 0
lfingers 7.12502 0 0
lthumb -10.8857 -44.9567 0
rclavicle -1.90022e-16 -7.91256e-15 0
rhumerus 0.416391 39.4498 -74.6834
rradius 115.371 0 0
rwrist -34.0432 0 0
rhand -9.83572 -21.4071 0
rfingers 7.12502 0 0
rthumb 16.1251 -50.5563 0
1225
root -0.448393 14.9113 -13.7762 364.719 4.99285 355.426
lfemur -53.2284 6.52091 -20.6899
ltibia 80.1088 0 0
lfoot -18.0916 10.2643 0
ltoes -34.0287 0 0
rfemur -28.8478 -4.69044 25.3343
rtibia 59.4268 0 0
rfoot -24.2715 -19.316 0
rtoes -9.36113 0 0
lowerback 15.2862 1.75919 -0.43455
upperback -2.70249 2.77605 3.69021
thorax -11.7284 1.43822 3.55795
lowerneck -4.26277 -4.6466 -8.88663
upperneck 3.63499 -5.95276 5.90956
head 2.35373 -2.9597 3.23586
lclavicle -1.03618e-15 -8.01167e-15 0
lhumerus 29.8349 -31.2611 95.787
lradius 97.3739 0 0
lwrist 53.2383 0 0
lhand -37.9405 56.9356 0
lfingers 7.12502 0 0
lthumb -10.98 -46.4742 0
rclavicle -1.03618e-15 -8.01167e-15 0
rhumerus 0.127792 39.5475 -74.8007
rradius 115.475 0 0
rwrist -34.402 0 0
rhand -10.0119 -21.3052 0
rfingers 7.12502 0 0
rthumb 15.9561 -50.4755 0
1226
root -0.461934 14.9103 -13.6564 364.81 4.7124 355.341
lfemur -53.6678 6.60844 -20.6668
ltibia 80.2009 0 0
lfoot -17.8523 10.1223 0
ltoes -34.0834 0 0
rfemur -28.5169 -4.69245 25.5557
rtibia 59.6354 0 0
rfoot -24.852 -19.6508 0
rtoes -9.64571 0 0
lowerback 15.2925 1.78496 -0.340661
upperback -2.72562 2.82777 3.69782
thorax -11.7606 1.45908 3.5013
lowerneck -4.2991 -4.59799 -8.85068
upperneck 3.59643 -5.88416 5.88775
head 2.34529 -2.92478 3.2283
lclavicle -1.87547e-15 -8.10986e-15 0
lhumerus 30.3501 -30.8688 95.5704
lradius 97.1511 0 0
lwrist 53.3602 0 0
lhand -38.0364 57.1015 0
lfingers 7.12502 0 0
lthumb -11.0726 -47.9903 0
rclavicle -1.87547e-15 -8.10986e-15 0
rhumerus -0.158673 39.6436 -74.9181
rradius 115.574 0 0
rwrist -34.7559 0 0
rhand -10.1849 -21.2051 0
rfingers 7.12502 0 0
rthumb 15.7901 -50.3961 0
1227
root -0.475298 14.9095 -13.5375 364.9 4.43503 355.257
lfemur -54.1016 6.69604 -20.6445
ltibia 80.2882 0 0
lfoot -17.6135 9.98244 0
ltoes -34.1335 0 0
rfemur -28.1873 -4.69413 25.7745
rtibia 59.8387 0 0
rfoot -25.4235 -19.9817 0
rtoes -9.92827 0 0
lowerback 15.298 1.8105 -0.247906
upperback -2.74859 2.87893 3.70527
thorax -11.792 1.47973 3.44528
lowerneck -4.33503 -4.54999 -8.815
upperneck 3.55896 -5.81646 5.8664
head 2.33714 -2.8903 3.22083
lclavicle -2.70748e-15 -8.20708e-15 0
lhumerus 30.8604 -30.4819 95.3548
lradius 96.9314 0 0
lwrist 53.4805 0 0
lhand -38.1307 57.2653 0
lfingers 7.12502 0 0
lthumb -11.1636 -49.5048 0
rclavicle -2.70748e-15 -8.20708e-15 0
rhumerus -0.442841 39.7382 -75.0355
rradius 115.669 0 0
rwrist -35.1047 0 0
rhand -10.3548 -21.1069 0
rfingers 7.12502 0 0
rthumb 15.6271 -50.3183 0
1228
root -0.488478 14.9086 -13.4197 364.989 4.16091 355.174
lfemur -54.5296 6.78368 -20.6232
ltibia 80.3705 0 0
lfoot -17.3755 9.84477 0
ltoes -34.179 0 0
rfemur -27.8593 -4.69546 25.9905
rtibia 60.0363 0 0
rfoot -25.9858 -20.3084 0
rtoes -10.2087 0 0
lowerback 15.3025 1.83579 -0.156329
upperback -2.7714 2.92951 3.71255
thorax -11.8227 1.50015 3.38993
lowerneck -4.37055 -4.50263 -8.77962
upperneck 3.5226 -5.74971 5.84554
head 2.32926 -2.8563 3.21347
lclavicle -3.53182e-15 -8.3033e-15 0
lhumerus 31.3655 -30.1008 95.1402
lradius 96.7151 0 0
lwrist 53.5992 0 0
lhand -38.2232 57.4269 0
lfingers 7.12502 0 0
lthumb -11.2529 -51.0176 0
rclavicle -3.53182e-15 -8.3033e-15 0
rhumerus -0.724549 39.8312 -75.1529
rradius 115.76 0 0
rwrist -35.448 0 0
rhand -10.5214 -21.0106 0
rfingers 7.12502 0 0
rthumb 15.4673 -50.2421 0
1229
root -0.501466 14.9078 -13.303 365.077 3.89021 355.092
lfemur -54.9518 6.87134 -20.6028
ltibia 80.4479 0 0
lfoot -17.1383 9.70937 0
ltoes -34.2198 0 0
rfemur -27.5329 -4.69642 26.2036
rtibia 60.2282 0 0
rfoot -26.5385 -20.6308 0
rtoes -10.4869 0 0
lowerback 15.3062 1.86083 -0.0659748
upperback -2.79405 2.97949 3.71967
thorax -11.8527 1.52033 3.33527
lowerneck -4.40564 -4.45594 -8.74456
upperneck 3.48739 -5.68398 5.8252
head 2.32167 -2.8228 3.20621
lclavicle -4.34808e-15 -8.39845e-15 0
lhumerus 31.8654 -29.7255 94.9268
lradius 96.5022 0 0
lwrist 53.7163 0 0
lhand -38.3139 57.5863 0
lfingers 7.12502 0 0
lthumb -11.3404 -52.5283 0
rclavicle -4.34808e-15 -8.39845e-15 0
rhumerus -1.00363 39.9226 -75.2704
rradius 115.846 0 0
rwrist -35.7856 0 0
rhand -10.6847 -20.9163 0
rfingers 7.12502 0 0
rthumb 15.3107 -50.1675 0
1230
root -0.514254 14.9071 -13.1874 365.163 3.6231 355.01
lfemur -55.3678 6.95898 -20.5836
ltibia 80.5203 0 0
lfoot -16.902 9.57632 0
ltoes -34.2558 0 0
rfemur -27.2081 -4.697 26.4138
rtibia 60.4141 0 0
rfoot -27.0813 -20.9488 0
rtoes -10.7628 0 0
lowerback 15.3088 1.8856 0.0231127
upperback -2.81652 3.02884 3.72661
thorax -11.8818 1.54026 3.28133
lowerneck -4.44028 -4.40997 -8.70984
upperneck 3.45335 -5.6193 5.80539
head 2.31437 -2.78981 3.19908
lclavicle -5.15586e-15 -8.49249e-15 0
lhumerus 32.3597 -29.3563 94.7146
lradius 96.2929 0 0
lwrist 53.8319 0 0
lhand -38.4026 57.7433 0
lfingers 7.12502 0 0
lthumb -11.4261 -54.0368 0
rclavicle -5.15586e-15 -8.49249e-15 0
rhumerus -1.27993 40.0123 -75.3877
rradius 115.928 0 0
rwrist -36.1174 0 0
rhand -10.8445 -20.8241 0
rfingers 7.12502 0 0
rthumb 15.1575 -50.0946 0
1231
root -0.526836 14.9064 -13.0729 365.249 3.35974 354.93
lfemur -55.7776 7.04658 -20.5654
ltibia 80.5874 0 0
lfoot -16.6667 9.44569 0
ltoes -34.2868 0 0
rfemur -26.8852 -4.69716 26.621
rtibia 60.594 0 0
rfoot -27.6139 -21.2622 0
rtoes -11.0363 0 0
lowerback 15.3105 1.91008 0.110889
upperback -2.83882 3.07753 3.73339
thorax -11.9101 1.55994 3.22813
lowerneck -4.47447 -4.36475 -8.67549
upperneck 3.42052 -5.55573 5.78614
head 2.30737 -2.75738 3.19207
lclavicle -5.95476e-15 -8.58538e-15 0
lhumerus 32.8484 -28.9935 94.5038
lradius 96.0874 0 0
lwrist 53.9459 0 0
lhand -38.4895 57.898 0
lfingers 7.12502 0 0
lthumb -11.5099 -55.5429 0
rclavicle -5.95476e-15 -8.58538e-15 0
rhumerus -1.55328 40.1004 -75.505
rradius 116.005 0 0
rwrist -36.4431 0 0
rhand -11.0007 -20.734 0
rfingers 7.12502 0 0
rthumb 15.0077 -50.0234 0
